<svg width="33" height="26" viewBox="0 0 33 26" fill="none" xmlns="http://www.w3.org/2000/svg">
<g filter="url(#filter0_d_207_160)">
<path d="M28.2641 0.877344C26.7488 0.241797 25.2324 4.69827e-08 23.7168 4.69827e-08C18.9055 -0.000390578 14.0945 2.43516 9.2832 2.43516C8.07656 2.43516 6.8707 2.28203 5.66406 1.89922C5.52852 1.85625 5.39258 1.83594 5.25977 1.83594C4.5875 1.83594 4 2.35625 4 3.07852V15.4715C4 15.9648 4.28242 16.4324 4.73594 16.6223C6.25117 17.2582 7.76758 17.5 9.2832 17.5C14.0945 17.5 18.9059 15.0645 23.7172 15.0645C24.9238 15.0645 26.1297 15.2176 27.3363 15.6004C27.4719 15.6434 27.6078 15.6637 27.7406 15.6637C28.4129 15.6637 29.0004 15.1434 29.0004 14.4211V2.02852C29 1.53477 28.7176 1.06758 28.2641 0.877344ZM5.875 3.91484C6.66094 4.11172 7.48125 4.21055 8.325 4.26367C8.09531 5.41172 7.08594 6.27695 5.875 6.27695V3.91484ZM5.875 15.0477V13.1812C7.21758 13.1812 8.30391 14.2465 8.36367 15.5797C7.48359 15.509 6.66094 15.3332 5.875 15.0477ZM16.5 12.5C14.7738 12.5 13.375 10.8207 13.375 8.75C13.375 6.67891 14.7742 5 16.5 5C18.2258 5 19.625 6.67891 19.625 8.75C19.625 10.8215 18.2254 12.5 16.5 12.5ZM27.125 13.5852C26.4406 13.4137 25.7301 13.3176 25.0031 13.2555C25.2324 12.2367 26.0773 11.4633 27.125 11.3305V13.5852ZM27.125 4.36211C25.9184 4.20937 24.982 3.20195 24.9449 1.95781C25.7082 2.04258 26.4328 2.20117 27.125 2.45234V4.36211Z" fill="#0021F5"/>
</g>
<defs>
<filter id="filter0_d_207_160" x="0" y="0" width="33.0005" height="25.5" filterUnits="userSpaceOnUse" color-interpolation-filters="sRGB">
<feFlood flood-opacity="0" result="BackgroundImageFix"/>
<feColorMatrix in="SourceAlpha" type="matrix" values="0 0 0 0 0 0 0 0 0 0 0 0 0 0 0 0 0 0 127 0" result="hardAlpha"/>
<feOffset dy="4"/>
<feGaussianBlur stdDeviation="2"/>
<feComposite in2="hardAlpha" operator="out"/>
<feColorMatrix type="matrix" values="0 0 0 0 0 0 0 0 0 0 0 0 0 0 0 0 0 0 0.25 0"/>
<feBlend mode="normal" in2="BackgroundImageFix" result="effect1_dropShadow_207_160"/>
<feBlend mode="normal" in="SourceGraphic" in2="effect1_dropShadow_207_160" result="shape"/>
</filter>
</defs>
</svg>
