<svg width="25" height="18" viewBox="0 0 25 18" fill="none" xmlns="http://www.w3.org/2000/svg">
<path d="M24.2641 0.877344C22.7488 0.241797 21.2324 4.69827e-08 19.7168 4.69827e-08C14.9055 -0.000390578 10.0945 2.43516 5.2832 2.43516C4.07656 2.43516 2.8707 2.28203 1.66406 1.89922C1.52852 1.85625 1.39258 1.83594 1.25977 1.83594C0.5875 1.83594 0 2.35625 0 3.07852V15.4715C0 15.9648 0.28242 16.4324 0.73594 16.6223C2.25117 17.2582 3.76758 17.5 5.2832 17.5C10.0945 17.5 14.9059 15.0645 19.7172 15.0645C20.9238 15.0645 22.1297 15.2176 23.3363 15.6004C23.4719 15.6434 23.6078 15.6637 23.7406 15.6637C24.4129 15.6637 25.0004 15.1434 25.0004 14.4211V2.02852C25 1.53477 24.7176 1.06758 24.2641 0.877344ZM1.875 3.91484C2.66094 4.11172 3.48125 4.21055 4.325 4.26367C4.09531 5.41172 3.08594 6.27695 1.875 6.27695V3.91484ZM1.875 15.0477V13.1812C3.21758 13.1812 4.30391 14.2465 4.36367 15.5797C3.48359 15.509 2.66094 15.3332 1.875 15.0477ZM12.5 12.5C10.7738 12.5 9.375 10.8207 9.375 8.75C9.375 6.67891 10.7742 5 12.5 5C14.2258 5 15.625 6.67891 15.625 8.75C15.625 10.8215 14.2254 12.5 12.5 12.5ZM23.125 13.5852C22.4406 13.4137 21.7301 13.3176 21.0031 13.2555C21.2324 12.2367 22.0773 11.4633 23.125 11.3305V13.5852ZM23.125 4.36211C21.9184 4.20937 20.982 3.20195 20.9449 1.95781C21.7082 2.04258 22.4328 2.20117 23.125 2.45234V4.36211Z" fill="black"/>
</svg>
