<svg width="29" height="26" viewBox="0 0 29 26" fill="none" xmlns="http://www.w3.org/2000/svg">
<g clip-path="url(#clip0_151_157)" filter="url(#filter0_d_151_157)">
<path d="M22.1667 15.8335C22.1667 16.708 21.3086 17.4168 20.2501 17.4168C19.1915 17.4168 18.3334 16.708 18.3334 15.8335C18.3334 14.9591 19.1915 14.2502 20.2501 14.2502C21.3086 14.2502 22.1667 14.9591 22.1667 15.8335ZM10.6667 14.2502C9.6082 14.2502 8.75008 14.9591 8.75008 15.8335C8.75008 16.708 9.6082 17.4168 10.6667 17.4168C11.7253 17.4168 12.5834 16.708 12.5834 15.8335C12.5834 14.9591 11.7253 14.2502 10.6667 14.2502ZM23.6042 3.16684H8.48175L7.94508 2.37518C7.60134 1.88334 6.96506 1.58125 6.27758 1.58351H5.39591C5.13128 1.58351 4.91675 1.76073 4.91675 1.97934V2.77101C4.91675 2.98962 5.13128 3.16684 5.39591 3.16684H6.27758L10.3792 9.09643C10.454 9.19576 10.5407 9.28859 10.638 9.37351L8.8555 12.3027C8.74469 12.4789 8.74469 12.6886 8.8555 12.8648L9.06633 13.1656C9.20088 13.3516 9.44615 13.4635 9.70841 13.4585H21.6876C21.9522 13.4585 22.1667 13.2813 22.1667 13.0627V12.271C22.1667 12.0524 21.9522 11.8752 21.6876 11.8752H11.2609L12.2192 10.2206C12.4196 10.2642 12.6254 10.2882 12.8326 10.2918H18.803C19.8051 10.2752 20.7211 9.81998 21.2084 9.09643L23.4605 5.82684C23.8617 5.25957 24.0765 4.6155 24.0834 3.95851V3.56268C24.0834 3.34406 23.8689 3.16684 23.6042 3.16684Z" fill="#161A33"/>
</g>
<defs>
<filter id="filter0_d_151_157" x="-1" y="0" width="31" height="27" filterUnits="userSpaceOnUse" color-interpolation-filters="sRGB">
<feFlood flood-opacity="0" result="BackgroundImageFix"/>
<feColorMatrix in="SourceAlpha" type="matrix" values="0 0 0 0 0 0 0 0 0 0 0 0 0 0 0 0 0 0 127 0" result="hardAlpha"/>
<feOffset dy="4"/>
<feGaussianBlur stdDeviation="2"/>
<feComposite in2="hardAlpha" operator="out"/>
<feColorMatrix type="matrix" values="0 0 0 0 0 0 0 0 0 0 0 0 0 0 0 0 0 0 0.25 0"/>
<feBlend mode="normal" in2="BackgroundImageFix" result="effect1_dropShadow_151_157"/>
<feBlend mode="normal" in="SourceGraphic" in2="effect1_dropShadow_151_157" result="shape"/>
</filter>
<clipPath id="clip0_151_157">
<rect width="23" height="19" fill="white" transform="translate(3)"/>
</clipPath>
</defs>
</svg>
