<svg width="24" height="24" viewBox="0 0 24 24" fill="none" xmlns="http://www.w3.org/2000/svg">
<g filter="url(#filter0_d_172_3)">
<path d="M12 0C13.0609 0 14.0783 0.421427 14.8284 1.17157C15.5786 1.92172 16 2.93913 16 4C16 5.06087 15.5786 6.07828 14.8284 6.82843C14.0783 7.57857 13.0609 8 12 8C10.9391 8 9.92172 7.57857 9.17157 6.82843C8.42143 6.07828 8 5.06087 8 4C8 2.93913 8.42143 1.92172 9.17157 1.17157C9.92172 0.421427 10.9391 0 12 0ZM12 10C16.42 10 20 11.79 20 14V16H4V14C4 11.79 7.58 10 12 10Z" fill="black"/>
</g>
<defs>
<filter id="filter0_d_172_3" x="0" y="0" width="24" height="24" filterUnits="userSpaceOnUse" color-interpolation-filters="sRGB">
<feFlood flood-opacity="0" result="BackgroundImageFix"/>
<feColorMatrix in="SourceAlpha" type="matrix" values="0 0 0 0 0 0 0 0 0 0 0 0 0 0 0 0 0 0 127 0" result="hardAlpha"/>
<feOffset dy="4"/>
<feGaussianBlur stdDeviation="2"/>
<feComposite in2="hardAlpha" operator="out"/>
<feColorMatrix type="matrix" values="0 0 0 0 0 0 0 0 0 0 0 0 0 0 0 0 0 0 0.25 0"/>
<feBlend mode="normal" in2="BackgroundImageFix" result="effect1_dropShadow_172_3"/>
<feBlend mode="normal" in="SourceGraphic" in2="effect1_dropShadow_172_3" result="shape"/>
</filter>
</defs>
</svg>
